# Blender v2.76 (sub 0) OBJ File: ''
# www.blender.org
mtllib rock.mtl
o Cube.001
v -0.031512 0.029616 0.011316
v -0.026865 0.057719 0.002900
v -0.052548 0.047726 0.003230
v -0.057724 0.022973 0.010892
v -0.033859 0.034909 -0.066485
v -0.058758 0.032319 -0.064062
v -0.050934 0.055298 -0.058748
v -0.030481 0.066394 -0.057397
v 0.055736 0.049048 -0.053395
v 0.040379 0.045104 -0.067321
v 0.022176 0.075691 -0.051636
v 0.046765 0.071325 -0.033877
v -0.047174 0.069617 -0.037181
v -0.064010 0.060904 -0.044200
v -0.085879 -0.034989 -0.045825
v -0.067728 -0.035842 -0.062252
v -0.034056 -0.074079 -0.059023
v -0.048674 -0.071572 -0.046304
v -0.037512 -0.056150 -0.007453
v -0.016056 -0.035102 0.003015
v -0.034585 -0.041792 0.005715
v -0.053106 -0.050780 -0.003726
v -0.017965 -0.029837 0.010984
v -0.023786 -0.001870 0.013702
v -0.054673 -0.005923 0.012701
v -0.043072 -0.026855 0.010960
v 0.027373 -0.032881 0.014206
v 0.023995 -0.005553 0.015606
v -0.000789 -0.003012 0.015635
v 0.008630 -0.026623 0.009424
v 0.019152 0.026658 0.014907
v 0.012166 0.059554 0.007074
v -0.007720 0.061449 0.005725
v -0.005308 0.029798 0.013718
v 0.017121 0.043185 -0.068544
v -0.009890 0.031541 -0.068019
v -0.017224 0.086500 -0.057619
v -0.003260 0.089802 -0.055146
v 0.040035 -0.035833 -0.066666
v 0.003146 -0.049716 -0.063815
v 0.002303 -0.012687 -0.067578
v 0.030542 -0.014539 -0.067617
v -0.027179 -0.044470 -0.064502
v -0.058791 0.000490 -0.065162
v -0.030135 -0.000564 -0.067179
v 0.067311 0.037341 -0.009488
v 0.063305 0.050418 -0.031537
v 0.057701 0.069079 -0.023902
v 0.050675 0.065647 -0.009175
v 0.066118 -0.042803 -0.006369
v 0.063287 -0.034486 -0.030010
v 0.058696 0.008452 -0.034623
v 0.063376 -0.003194 -0.012055
v 0.071100 -0.035352 -0.044860
v 0.061531 -0.029724 -0.060843
v 0.048719 0.002395 -0.062328
v 0.052489 0.009876 -0.053425
v -0.035297 0.067347 -0.009532
v -0.052122 0.064480 -0.020146
v -0.082314 0.042679 -0.022600
v -0.078482 0.038535 -0.005514
v 0.024687 0.069973 -0.007672
v 0.033315 0.072434 -0.021997
v 0.012990 0.068273 -0.022632
v -0.006749 0.075251 -0.007834
v 0.026181 0.070523 -0.034571
v -0.003340 0.080110 -0.032603
v -0.067249 -0.040404 0.003935
v -0.087900 -0.036231 -0.015981
v -0.059222 -0.056678 -0.024078
v -0.077435 0.024382 -0.001676
v -0.082235 0.022951 -0.023131
v -0.082355 -0.003202 -0.021491
v -0.077338 -0.012779 0.007690
v -0.071638 0.037339 -0.050855
v -0.074073 0.002266 -0.053426
v -0.013146 -0.085839 -0.045839
v -0.038731 -0.070125 -0.024878
v 0.040059 -0.076429 -0.042516
v 0.027786 -0.074825 -0.022463
v -0.009980 -0.076821 -0.016841
v 0.007653 -0.091611 -0.041962
v 0.025608 -0.059919 -0.005735
v 0.023422 -0.051340 0.007143
v 0.003360 -0.039176 0.003636
v -0.009016 -0.061695 -0.003047
v 0.044798 -0.053903 0.005835
v 0.052045 -0.031893 0.009525
v 0.052214 -0.007400 0.007880
v 0.050389 0.023513 0.006323
v 0.036776 0.053338 0.003802
v 0.065117 -0.051177 -0.054188
v 0.038481 -0.064985 -0.056110
v 0.005257 -0.079253 -0.056341
v -0.008740 -0.090058 -0.057359
v 0.054005 -0.064378 -0.008756
v 0.059953 -0.061084 -0.026912
v 0.069216 -0.059091 -0.040379
vt 0.579800 0.866401
vt 0.499254 0.863801
vt 0.531765 0.804579
vt 0.603772 0.804579
vt 0.876535 0.702394
vt 0.938738 0.696847
vt 0.924577 0.759955
vt 0.876535 0.791342
vt 0.394045 0.033836
vt 0.429389 0.102564
vt 0.314234 0.102564
vt 0.288513 0.000868
vt 0.498222 0.868138
vt 0.603772 0.868138
vt 0.592751 0.924456
vt 0.514752 0.923077
vt 0.310550 0.115505
vt 0.394184 0.150120
vt 0.374462 0.274327
vt 0.310550 0.243353
vt 0.699405 0.842712
vt 0.772031 0.791051
vt 0.772031 0.841038
vt 0.718462 0.882592
vt 0.950927 0.872947
vt 0.879773 0.872947
vt 0.875019 0.796588
vt 0.931582 0.814072
vt 0.280112 0.989663
vt 0.212355 0.989663
vt 0.193048 0.931729
vt 0.261639 0.939360
vt 0.892786 0.933871
vt 0.802931 0.922978
vt 0.792593 0.874683
vt 0.879258 0.874683
vt 0.141221 0.624648
vt 0.141221 0.696775
vt 0.000868 0.661829
vt 0.001026 0.624715
vt 0.790857 0.755339
vt 0.699405 0.789315
vt 0.699405 0.696847
vt 0.768533 0.702591
vt 0.454540 0.632803
vt 0.352358 0.632803
vt 0.356747 0.540233
vt 0.426625 0.527945
vt 0.763228 0.000868
vt 0.735109 0.108186
vt 0.685613 0.074014
vt 0.682801 0.000868
vt 0.100792 0.222746
vt 0.100792 0.338175
vt 0.000868 0.379219
vt 0.010066 0.267054
vt 0.127437 0.698512
vt 0.083949 0.767266
vt 0.000868 0.749407
vt 0.000868 0.702029
vt 0.128652 0.554770
vt 0.091881 0.609457
vt 0.000868 0.622911
vt 0.000869 0.539790
vt 0.675145 0.665981
vt 0.697668 0.734524
vt 0.646844 0.738012
vt 0.597012 0.665981
vt 0.657598 0.297738
vt 0.614534 0.421527
vt 0.583005 0.441108
vt 0.583005 0.315397
vt 0.499254 0.554721
vt 0.607787 0.550996
vt 0.607787 0.645633
vt 0.514907 0.609059
vt 0.308814 0.231848
vt 0.214270 0.274327
vt 0.193048 0.213401
vt 0.308814 0.130371
vt 0.792593 0.786953
vt 0.863937 0.795396
vt 0.873282 0.872947
vt 0.805521 0.872947
vt 0.497236 0.441108
vt 0.377517 0.406602
vt 0.352358 0.351933
vt 0.467968 0.351933
vt 0.154794 0.466173
vt 0.054038 0.461537
vt 0.000868 0.380955
vt 0.133915 0.380955
vt 0.785356 0.884329
vt 0.787238 0.949769
vt 0.727338 0.949196
vt 0.699405 0.884329
vt 0.931437 0.191479
vt 0.851232 0.191479
vt 0.851405 0.125172
vt 0.922423 0.115505
vt 0.696711 0.941162
vt 0.615095 0.941162
vt 0.605509 0.876615
vt 0.685261 0.885125
vt 0.438281 0.976608
vt 0.352358 0.965297
vt 0.357822 0.915908
vt 0.438281 0.911353
vt 0.496996 0.722201
vt 0.481314 0.779891
vt 0.393754 0.764237
vt 0.352358 0.722201
vt 0.555287 0.091938
vt 0.470398 0.091938
vt 0.431126 0.013862
vt 0.489480 0.000868
vt 0.692902 0.804579
vt 0.683305 0.874878
vt 0.605509 0.867867
vt 0.605509 0.805418
vt 0.761237 0.608356
vt 0.699405 0.695110
vt 0.699405 0.584548
vt 0.743139 0.550996
vt 0.602612 0.457752
vt 0.600532 0.549259
vt 0.504289 0.549259
vt 0.499254 0.442845
vt 0.095774 0.784992
vt 0.108932 0.830506
vt 0.000868 0.846286
vt 0.000868 0.769002
vt 0.677932 0.152426
vt 0.650775 0.231453
vt 0.593663 0.236910
vt 0.593663 0.115505
vt 0.350622 0.381435
vt 0.305665 0.433481
vt 0.193048 0.435496
vt 0.193048 0.351933
vt 0.508556 0.115505
vt 0.456264 0.229824
vt 0.397925 0.221036
vt 0.395921 0.115505
vt 0.000868 0.000868
vt 0.144150 0.000868
vt 0.148724 0.128635
vt 0.041046 0.086553
vt 0.155977 0.221009
vt 0.000868 0.221009
vt 0.048538 0.130371
vt 0.191312 0.142428
vt 0.631198 0.564155
vt 0.697668 0.550996
vt 0.697668 0.643670
vt 0.609523 0.664245
vt 0.103054 0.908155
vt 0.014515 0.890062
vt 0.000868 0.848023
vt 0.100690 0.848023
vt 0.720454 0.457134
vt 0.794960 0.442845
vt 0.794960 0.517071
vt 0.707052 0.538015
vt 0.796697 0.471322
vt 0.861327 0.442845
vt 0.867325 0.491188
vt 0.796697 0.545548
vt 0.809839 0.431410
vt 0.770142 0.439978
vt 0.738640 0.386611
vt 0.787663 0.386611
vt 0.551800 0.255825
vt 0.565059 0.297137
vt 0.498973 0.297137
vt 0.503094 0.256736
vt 0.985951 0.691362
vt 0.917600 0.681817
vt 0.905305 0.625960
vt 0.976459 0.625960
vt 0.999132 0.502519
vt 0.941822 0.502519
vt 0.951062 0.449734
vt 0.993899 0.442845
vt 0.940475 0.708463
vt 0.998767 0.696847
vt 0.997784 0.761392
vt 0.940475 0.761604
vt 0.576821 0.931932
vt 0.576823 0.992422
vt 0.498222 0.992422
vt 0.512524 0.926193
vt 0.097039 0.969198
vt 0.017216 0.968364
vt 0.000868 0.909892
vt 0.082484 0.909892
vt 0.849264 0.087768
vt 0.773077 0.087768
vt 0.764965 0.000868
vt 0.844344 0.009321
vt 0.834103 0.384875
vt 0.757077 0.359193
vt 0.738640 0.297738
vt 0.829152 0.297738
vt 0.286776 0.097215
vt 0.232051 0.114875
vt 0.150461 0.000868
vt 0.223705 0.000868
vt 0.614945 0.743866
vt 0.644435 0.802843
vt 0.499254 0.802843
vt 0.505750 0.745707
vt 0.338229 0.562153
vt 0.318135 0.628545
vt 0.205871 0.633131
vt 0.193048 0.562153
vt 0.922471 0.000868
vt 0.983437 0.008824
vt 0.985373 0.066069
vt 0.922471 0.085847
vt 0.851001 0.025926
vt 0.920734 0.000868
vt 0.920734 0.088466
vt 0.859260 0.087470
vt 0.592520 0.000868
vt 0.681064 0.004523
vt 0.654583 0.080952
vt 0.557024 0.080952
vt 0.732579 0.424592
vt 0.659335 0.406248
vt 0.659335 0.297738
vt 0.736903 0.332226
vt 0.469465 0.803330
vt 0.477563 0.846170
vt 0.352358 0.846170
vt 0.391543 0.781628
vt 0.387918 0.350197
vt 0.314127 0.350197
vt 0.193048 0.316193
vt 0.287020 0.276064
vt 0.843188 0.550996
vt 0.843188 0.643836
vt 0.762973 0.649672
vt 0.764922 0.572602
vt 0.496351 0.231560
vt 0.496351 0.331554
vt 0.395921 0.334546
vt 0.421407 0.245273
vt 0.296932 0.437233
vt 0.296932 0.549774
vt 0.193048 0.560416
vt 0.197216 0.449554
vt 0.698388 0.449348
vt 0.705315 0.536916
vt 0.604348 0.536916
vt 0.638249 0.442845
vt 0.903568 0.579784
vt 0.903568 0.657668
vt 0.844925 0.638587
vt 0.851567 0.550996
vt 0.172328 0.770160
vt 0.172907 0.858833
vt 0.110669 0.884432
vt 0.110669 0.769002
vt 0.497517 0.454781
vt 0.478976 0.526208
vt 0.352358 0.526208
vt 0.390154 0.442845
vt 0.348779 0.861795
vt 0.341868 0.930093
vt 0.283126 0.950374
vt 0.283127 0.876580
vt 0.349394 0.437233
vt 0.349394 0.506976
vt 0.308686 0.553867
vt 0.298669 0.473133
vt 0.317623 0.719750
vt 0.321706 0.786999
vt 0.193048 0.786999
vt 0.251404 0.733136
vt 0.974381 0.550996
vt 0.978362 0.624223
vt 0.905305 0.624223
vt 0.925504 0.559950
vt 0.108724 0.467910
vt 0.161180 0.538053
vt 0.000868 0.538053
vt 0.037268 0.483118
vt 0.908523 0.199586
vt 0.933865 0.276746
vt 0.855733 0.276746
vt 0.859289 0.203498
vt 0.813281 0.199586
vt 0.853996 0.265052
vt 0.789226 0.270208
vt 0.749120 0.199586
vt 0.959425 0.322391
vt 0.954724 0.395440
vt 0.899310 0.369887
vt 0.899310 0.297738
vt 0.873132 0.297738
vt 0.897573 0.355776
vt 0.835839 0.401217
vt 0.835839 0.332443
vt 0.996105 0.199586
vt 0.983140 0.253162
vt 0.935602 0.270503
vt 0.935602 0.207529
vt 0.191312 0.562153
vt 0.191312 0.667051
vt 0.145983 0.724584
vt 0.151701 0.593643
vt 0.671824 0.295146
vt 0.596007 0.295146
vt 0.593663 0.238646
vt 0.660899 0.247355
vt 0.902779 0.874683
vt 0.965597 0.874683
vt 0.968728 0.948854
vt 0.894522 0.933309
vt 0.573209 0.298874
vt 0.581269 0.441108
vt 0.501964 0.407429
vt 0.498973 0.298874
vt 0.222945 0.860059
vt 0.193048 0.788736
vt 0.294525 0.788736
vt 0.294112 0.851553
vt 0.190084 0.957813
vt 0.110669 0.957813
vt 0.112629 0.918536
vt 0.182865 0.886169
vt 0.968439 0.105233
vt 0.981368 0.187343
vt 0.933174 0.191479
vt 0.933174 0.087831
vt 0.165652 0.236079
vt 0.189405 0.374060
vt 0.102528 0.377855
vt 0.102528 0.222746
vt 0.727057 0.125208
vt 0.747383 0.244898
vt 0.679668 0.255515
vt 0.679668 0.115505
vt 0.352358 0.847907
vt 0.430355 0.849428
vt 0.454032 0.909616
vt 0.382190 0.909616
vt 0.849495 0.183206
vt 0.794155 0.197849
vt 0.749120 0.115505
vt 0.820141 0.115505
vt 0.792593 0.949348
vt 0.866881 0.935608
vt 0.849701 0.988988
vt 0.792593 0.992946
vt 0.510292 0.248552
vt 0.510292 0.115505
vt 0.591927 0.123067
vt 0.566255 0.244986
vt 0.792593 0.696847
vt 0.863660 0.698188
vt 0.874798 0.785216
vt 0.799251 0.785216
vt 0.870680 0.449704
vt 0.940086 0.442845
vt 0.940086 0.526602
vt 0.869062 0.523785
vt 0.304014 0.718013
vt 0.235607 0.712281
vt 0.193048 0.634868
vt 0.293910 0.634868
vt 0.593583 0.742130
vt 0.505730 0.733076
vt 0.499254 0.647370
vt 0.575118 0.647370
vt 0.461195 0.720465
vt 0.374245 0.703060
vt 0.352358 0.634540
vt 0.440676 0.634540
vt 0.281390 0.929992
vt 0.205269 0.913512
vt 0.193048 0.861795
vt 0.258515 0.861795
vn -0.089600 0.184000 0.978800
vn -0.216800 0.524300 0.823500
vn -0.300300 0.513500 0.803800
vn -0.258300 0.191500 0.946900
vn -0.094900 0.137000 -0.986000
vn -0.401400 0.175500 -0.898900
vn -0.342300 0.514200 -0.786400
vn -0.312900 0.614500 -0.724200
vn 0.782200 0.305000 -0.543300
vn 0.446500 0.268900 -0.853400
vn 0.335900 0.828000 -0.449000
vn 0.404100 0.872200 -0.275700
vn -0.387200 0.918800 0.077400
vn -0.647800 0.687500 -0.328200
vn -0.889100 -0.275600 -0.365600
vn -0.451800 -0.229000 -0.862200
vn -0.351700 -0.608100 -0.711700
vn -0.566400 -0.811000 -0.146700
vn -0.162000 -0.690700 0.704800
vn -0.012500 -0.482000 0.876100
vn 0.079500 -0.589100 0.804200
vn -0.235600 -0.744100 0.625200
vn 0.027000 -0.367100 0.929800
vn -0.038700 -0.031900 0.998700
vn -0.173200 -0.017900 0.984700
vn -0.051400 -0.286700 0.956600
vn -0.017500 -0.187600 0.982100
vn 0.083000 -0.022700 0.996300
vn -0.050300 -0.064100 0.996700
vn -0.140400 -0.289100 0.947000
vn 0.117300 0.140800 0.983100
vn 0.103300 0.495300 0.862500
vn -0.082900 0.520500 0.849800
vn -0.067700 0.151900 0.986100
vn 0.087700 0.179400 -0.979900
vn -0.049400 0.084300 -0.995200
vn -0.228800 0.808300 -0.542600
vn 0.139300 0.914900 -0.378800
vn 0.156400 -0.149800 -0.976300
vn 0.032300 -0.172400 -0.984500
vn -0.019800 -0.050300 -0.998500
vn 0.089700 -0.018300 -0.995800
vn -0.034200 -0.121700 -0.992000
vn -0.356100 0.019800 -0.934200
vn -0.052400 -0.028000 -0.998200
vn 0.923000 0.140800 0.358100
vn 0.947300 0.259100 -0.188100
vn 0.667300 0.744800 0.009500
vn 0.499500 0.679600 0.537300
vn 0.921400 -0.189900 0.339200
vn 0.993500 0.031300 0.109700
vn 0.985800 0.039600 -0.163400
vn 0.978000 0.021600 0.207700
vn 0.990900 0.092900 -0.097100
vn 0.621200 0.023700 -0.783300
vn 0.539800 0.101100 -0.835700
vn 0.905700 0.092400 -0.413600
vn -0.292600 0.932100 0.213700
vn -0.432900 0.847600 0.306900
vn -0.895200 0.443500 0.044800
vn -0.735400 0.388000 0.555500
vn 0.129200 0.907700 0.399300
vn 0.098500 0.988200 0.117000
vn 0.021600 0.994600 0.101200
vn -0.091300 0.973500 0.209700
vn 0.160900 0.960400 0.227300
vn -0.076600 0.912900 0.401000
vn -0.463600 -0.501600 0.730400
vn -0.907000 -0.361100 0.216800
vn -0.517000 -0.817000 0.255300
vn -0.780500 0.137400 0.609800
vn -0.995700 0.063200 -0.067200
vn -0.996200 0.078300 0.038700
vn -0.672100 -0.032700 0.739700
vn -0.801400 0.208900 -0.560500
vn -0.829900 0.093100 -0.550100
vn -0.274800 -0.960000 0.054000
vn -0.368900 -0.831800 0.414800
vn 0.423600 -0.890900 -0.164100
vn 0.238500 -0.849300 0.471100
vn -0.111900 -0.823500 0.556200
vn 0.166200 -0.986100 0.000600
vn 0.025200 -0.769200 0.638500
vn -0.096100 -0.494300 0.864000
vn -0.145600 -0.433400 0.889400
vn -0.114100 -0.548400 0.828400
vn 0.234400 -0.560600 0.794200
vn 0.514500 -0.102900 0.851300
vn 0.569000 0.043300 0.821200
vn 0.516900 0.115600 0.848200
vn 0.317100 0.408100 0.856100
vn 0.628300 -0.350100 -0.694800
vn 0.276000 -0.520700 -0.807900
vn 0.171400 -0.548100 -0.818600
vn -0.050900 -0.756200 -0.652300
vn 0.504900 -0.739400 0.445300
vn 0.724600 -0.625200 0.289900
vn 0.865500 -0.500800 -0.009500
usemtl Material.001
s 1
f 1/1/1 2/2/2 3/3/3 4/4/4
f 5/5/5 6/6/6 7/7/7 8/8/8
f 9/9/9 10/10/10 11/11/11 12/12/12
f 13/13/13 8/14/8 7/15/7 14/16/14
f 15/17/15 16/18/16 17/19/17 18/20/18
f 19/21/19 20/22/20 21/23/21 22/24/22
f 23/25/23 24/26/24 25/27/25 26/28/26
f 27/29/27 28/30/28 29/31/29 30/32/30
f 31/33/31 32/34/32 33/35/33 34/36/34
f 35/37/35 36/38/36 37/39/37 38/40/38
f 39/41/39 40/42/40 41/43/41 42/44/42
f 43/45/43 16/46/16 44/47/44 45/48/45
f 46/49/46 47/50/47 48/51/48 49/52/49
f 50/53/50 51/54/51 52/55/52 53/56/53
f 54/57/54 55/58/55 56/59/56 57/60/57
f 58/61/58 59/62/59 60/63/60 61/64/61
f 62/65/62 63/66/63 64/67/64 65/68/65
f 66/69/66 38/70/38 37/71/37 67/72/67
f 68/73/68 69/74/69 70/75/70 22/76/22
f 71/77/71 72/78/72 73/79/73 74/80/74
f 75/81/75 6/82/6 44/83/44 76/84/76
f 77/85/77 78/86/78 70/87/70 18/88/18
f 79/89/79 80/90/80 81/91/81 82/92/82
f 83/93/83 84/94/84 85/95/85 86/96/86
f 24/97/24 1/98/1 4/99/4 25/100/25
f 29/101/29 34/102/34 1/103/1 24/104/24
f 34/105/34 33/106/33 2/107/2 1/108/1
f 36/109/36 5/110/5 8/111/8 37/112/37
f 41/113/41 45/114/45 5/115/5 36/116/36
f 45/117/45 44/118/44 6/119/6 5/120/5
f 47/121/47 9/122/9 12/123/12 48/124/48
f 52/125/52 57/126/57 9/127/9 47/128/47
f 57/129/57 56/130/56 10/131/10 9/132/9
f 59/133/59 13/134/13 14/135/14 60/136/60
f 64/137/64 67/138/67 13/139/13 59/140/59
f 67/141/67 37/142/37 8/143/8 13/144/13
f 69/145/69 15/146/15 18/147/18 70/148/70
f 73/149/73 76/150/76 15/151/15 69/152/69
f 76/153/76 44/154/44 16/155/16 15/156/15
f 78/157/78 19/158/19 22/159/22 70/160/70
f 81/161/81 86/162/86 19/163/19 78/164/78
f 86/165/86 85/166/85 20/167/20 19/168/19
f 20/169/20 23/170/23 26/171/26 21/172/21
f 85/173/85 30/174/30 23/175/23 20/176/20
f 30/177/30 29/178/29 24/179/24 23/180/23
f 84/181/84 27/182/27 30/183/30 85/184/85
f 87/185/87 88/186/88 27/187/27 84/188/84
f 88/189/88 89/190/89 28/191/28 27/192/27
f 28/193/28 31/194/31 34/195/34 29/196/29
f 89/197/89 90/198/90 31/199/31 28/200/28
f 90/201/90 91/202/91 32/203/32 31/204/31
f 10/205/10 35/206/35 38/207/38 11/208/11
f 56/209/56 42/210/42 35/211/35 10/212/10
f 42/213/42 41/214/41 36/215/36 35/216/35
f 55/217/55 39/218/39 42/219/42 56/220/56
f 92/221/92 93/222/93 39/223/39 55/224/55
f 93/225/93 94/226/94 40/227/40 39/228/39
f 40/229/40 43/230/43 45/231/45 41/232/41
f 94/233/94 95/234/95 43/235/43 40/236/40
f 95/237/95 17/238/17 16/239/16 43/240/43
f 90/241/90 46/242/46 49/243/49 91/244/91
f 89/245/89 53/246/53 46/247/46 90/248/90
f 53/249/53 52/250/52 47/251/47 46/252/46
f 88/253/88 50/254/50 53/255/53 89/256/89
f 87/257/87 96/258/96 50/259/50 88/260/88
f 96/261/96 97/262/97 51/263/51 50/264/50
f 51/265/51 54/266/54 57/267/57 52/268/52
f 97/269/97 98/270/98 54/271/54 51/272/51
f 98/273/98 92/274/92 55/275/55 54/276/54
f 2/277/2 58/278/58 61/279/61 3/280/3
f 33/281/33 65/282/65 58/283/58 2/284/2
f 65/285/65 64/286/64 59/287/59 58/288/58
f 32/289/32 62/290/62 65/291/65 33/292/33
f 91/293/91 49/294/49 62/295/62 32/296/32
f 49/297/49 48/298/48 63/299/63 62/300/62
f 63/301/63 66/302/66 67/303/67 64/304/64
f 48/305/48 12/306/12 66/307/66 63/308/63
f 12/309/12 11/310/11 38/311/38 66/312/66
f 26/313/26 68/314/68 22/315/22 21/316/21
f 25/317/25 74/318/74 68/319/68 26/320/26
f 74/321/74 73/322/73 69/323/69 68/324/68
f 4/325/4 71/326/71 74/327/74 25/328/25
f 3/329/3 61/330/61 71/331/71 4/332/4
f 61/333/61 60/334/60 72/335/72 71/336/71
f 72/337/72 75/338/75 76/339/76 73/340/73
f 60/341/60 14/342/14 75/343/75 72/344/72
f 14/345/14 7/346/7 6/347/6 75/348/75
f 95/349/95 77/350/77 18/351/18 17/352/17
f 94/353/94 82/354/82 77/355/77 95/356/95
f 82/357/82 81/358/81 78/359/78 77/360/77
f 93/361/93 79/362/79 82/363/82 94/364/94
f 92/365/92 98/366/98 79/367/79 93/368/93
f 98/369/98 97/370/97 80/371/80 79/372/79
f 80/373/80 83/374/83 86/375/86 81/376/81
f 97/377/97 96/378/96 83/379/83 80/380/80
f 96/381/96 87/382/87 84/383/84 83/384/83
