# Blender v2.76 (sub 0) OBJ File: 'Desk_lamp.blend'
# www.blender.org
mtllib Desk_lamp.mtl
o desk_lamp_Plane
v -0.029990 0.028435 -0.051145
v -0.007996 0.020280 -0.052753
v -0.010343 0.017933 -0.052753
v -0.030677 0.027534 -0.052959
v -0.050787 0.066576 -0.057175
v -0.052464 0.065863 -0.055583
v -0.057703 0.072316 -0.068051
v -0.055735 0.073167 -0.067950
v -0.058029 0.068458 -0.125520
v -0.059068 0.071540 -0.126879
v 0.009481 -0.022840 -0.029604
v 0.015205 -0.028564 -0.030575
v 0.014731 -0.024001 -0.026042
v 0.022840 -0.009481 -0.029604
v 0.028564 -0.015205 -0.030575
v 0.024001 -0.014731 -0.026042
v 0.033875 -0.021237 0.113639
v 0.038603 -0.025954 0.122006
v 0.034414 -0.034871 0.126195
v 0.025498 -0.039071 0.122017
v 0.020770 -0.034354 0.113650
v 0.024959 -0.025437 0.109461
v 0.043112 -0.030473 0.103213
v 0.047840 -0.035190 0.111580
v 0.043651 -0.044107 0.115769
v 0.034734 -0.048307 0.111591
v 0.030006 -0.043591 0.103223
v 0.034195 -0.034673 0.099035
v 0.052265 -0.026971 0.093402
v 0.061558 -0.036243 0.109848
v 0.053324 -0.053770 0.118081
v 0.035798 -0.062026 0.109869
v 0.026505 -0.052755 0.093422
v 0.034738 -0.035227 0.085189
v 0.070023 -0.041768 0.103485
v 0.059670 -0.031440 0.085164
v 0.060851 -0.061294 0.112657
v 0.041326 -0.070491 0.103508
v 0.030973 -0.060163 0.085187
v 0.040145 -0.040637 0.076015
v 0.067404 -0.039174 0.076433
v 0.077757 -0.049502 0.094754
v 0.068584 -0.069028 0.103926
v 0.049060 -0.078225 0.094777
v 0.038707 -0.067897 0.076456
v 0.047879 -0.048371 0.067284
v 0.031325 -0.020883 0.116428
v 0.035261 -0.024809 0.123392
v 0.031774 -0.032232 0.126879
v 0.024351 -0.035728 0.123401
v 0.020416 -0.031802 0.116436
v 0.023902 -0.024379 0.112950
v 0.026699 -0.027167 0.121200
v 0.051579 -0.052061 0.076159
v 0.046333 -0.063229 0.081406
v 0.052255 -0.069137 0.091885
v 0.063423 -0.063876 0.097119
v 0.068669 -0.052708 0.091872
v 0.062748 -0.046800 0.081393
v 0.060424 -0.060892 0.082763
v 0.046386 -0.046870 0.079572
v 0.059424 -0.040728 0.085681
v 0.040261 -0.059908 0.085697
v 0.047174 -0.066805 0.097931
v 0.060212 -0.060664 0.104040
v 0.066337 -0.047625 0.097916
v 0.022936 -0.028996 0.106657
v 0.020264 -0.026324 0.100025
v 0.024641 -0.030701 0.096050
v 0.027785 -0.033845 0.102253
v 0.027403 -0.033463 0.105850
v 0.025352 -0.031412 0.107672
v 0.030612 -0.026152 0.107672
v 0.032663 -0.028203 0.105850
v 0.033044 -0.028585 0.102253
v 0.029901 -0.025441 0.096050
v 0.025524 -0.021064 0.100025
v 0.028195 -0.023736 0.106657
v -0.017563 0.021979 -0.049786
v -0.012918 0.018604 -0.049786
v -0.014692 0.013144 -0.049786
v -0.020433 0.013144 -0.049786
v -0.022207 0.018604 -0.049786
v -0.010176 0.014660 -0.016475
v -0.013913 0.017376 -0.016475
v -0.011604 0.010267 -0.016475
v -0.016223 0.010267 -0.016475
v -0.017651 0.014660 -0.016475
v -0.000039 0.004511 0.031980
v -0.003798 0.007251 0.033119
v -0.001439 0.000105 0.031471
v -0.006068 0.000126 0.032289
v -0.007523 0.004539 0.033311
v 0.015669 -0.011961 0.073944
v 0.012751 -0.009905 0.075662
v 0.014374 -0.015574 0.073178
v 0.010631 -0.015727 0.074386
v 0.009622 -0.012217 0.075912
v 0.027609 -0.024763 0.103866
v 0.030061 -0.026353 0.101290
v 0.028536 -0.029737 0.100106
v 0.025141 -0.030237 0.101950
v 0.024568 -0.027163 0.104273
v -0.014095 0.018511 -0.054164
v -0.018104 0.014501 -0.054164
v 0.044656 -0.008655 -0.054623
v 0.008655 -0.044656 -0.054623
v -0.035709 -0.002673 -0.054623
v 0.002673 0.035709 -0.054623
v 0.034729 -0.034729 -0.054623
v -0.020792 -0.030455 -0.054623
v 0.030455 0.020792 -0.054623
v 0.030455 0.020792 -0.043206
v -0.020792 -0.030455 -0.043206
v 0.034729 -0.034729 -0.043206
v 0.002673 0.035709 -0.043206
v -0.035709 -0.002673 -0.043206
v 0.008655 -0.044656 -0.043206
v 0.044656 -0.008655 -0.043206
v -0.018714 -0.023474 -0.030703
v 0.005528 -0.035164 -0.032876
v 0.023474 0.018714 -0.030703
v 0.035164 -0.005528 -0.032876
v 0.024045 -0.024045 -0.028321
v 0.001117 -0.001117 -0.026535
v -0.051434 0.049758 -0.052113
v -0.053031 0.048665 -0.052278
v -0.062837 0.073073 -0.090501
v -0.062473 0.075139 -0.090141
v -0.043569 0.036525 -0.051629
v -0.044711 0.035528 -0.052618
v 0.019709 -0.019023 -0.024587
vt 0.486270 0.922501
vt 0.490184 0.947818
vt 0.208277 0.972338
vt 0.190652 0.936338
vt 0.882831 0.817788
vt 0.856035 0.804059
vt 0.859514 0.659376
vt 0.885030 0.651047
vt 0.206967 0.067726
vt 0.161296 0.098862
vt 0.117664 0.073634
vt 0.203376 0.211164
vt 0.117300 0.202886
vt 0.160058 0.179146
vt 0.606933 0.387412
vt 0.534447 0.378610
vt 0.567731 0.398477
vt 0.650283 0.315089
vt 0.528259 0.339382
vt 0.579267 0.271735
vt 0.812757 0.911548
vt 0.829979 0.936208
vt 0.872507 0.414389
vt 0.898611 0.408820
vt 0.869948 0.041163
vt 0.912365 0.053333
vt 0.681884 0.940584
vt 0.689725 0.963853
vt 0.160426 0.135045
vt 0.378238 0.384328
vt 0.378248 0.295701
vt 0.437974 0.295708
vt 0.437964 0.384335
vt 0.323307 0.384325
vt 0.314591 0.295698
vt 0.437890 0.384334
vt 0.437900 0.295707
vt 0.492804 0.384338
vt 0.501548 0.295712
vt 0.349454 0.246679
vt 0.466854 0.246692
vt 0.257762 0.246673
vt 0.349306 0.246680
vt 0.466706 0.246691
vt 0.558390 0.246698
vt 0.342778 0.184628
vt 0.473561 0.184642
vt 0.240636 0.184621
vt 0.342612 0.184628
vt 0.473397 0.184641
vt 0.575535 0.184650
vt 0.342786 0.110417
vt 0.473570 0.110432
vt 0.240646 0.110410
vt 0.342622 0.110417
vt 0.473405 0.110431
vt 0.575547 0.110438
vt 0.432940 0.402182
vt 0.382929 0.402045
vt 0.337507 0.402063
vt 0.383170 0.402066
vt 0.432889 0.402072
vt 0.478600 0.402074
vt 0.407793 0.448599
vt 0.351354 0.448500
vt 0.379473 0.494949
vt 0.435831 0.495104
vt 0.464232 0.448811
vt 0.129117 0.295745
vt 0.191517 0.332201
vt 0.129117 0.368359
vt 0.067499 0.332344
vt 0.067267 0.404549
vt 0.129117 0.438768
vt 0.191057 0.404876
vt 0.128532 0.255637
vt 0.230619 0.312157
vt 0.027523 0.314597
vt 0.029863 0.427633
vt 0.130475 0.481436
vt 0.230674 0.425894
vt 0.708201 0.070205
vt 0.737011 0.065987
vt 0.738247 0.229695
vt 0.715202 0.235107
vt 0.678834 0.073751
vt 0.691509 0.237871
vt 0.794236 0.069712
vt 0.823354 0.074709
vt 0.808322 0.238671
vt 0.784947 0.234206
vt 0.765672 0.065739
vt 0.761881 0.229029
vt 0.736595 0.478898
vt 0.712659 0.482109
vt 0.688755 0.483820
vt 0.807320 0.484813
vt 0.783390 0.481953
vt 0.759715 0.478639
vt 0.735728 0.715545
vt 0.715097 0.717299
vt 0.694513 0.718421
vt 0.797143 0.719461
vt 0.776554 0.717479
vt 0.756032 0.715297
vt 0.733422 0.893084
vt 0.712613 0.890939
vt 0.691721 0.889783
vt 0.796131 0.890927
vt 0.775229 0.892133
vt 0.754346 0.893663
vt 0.730573 0.035702
vt 0.770079 0.035213
vt 0.151729 0.742086
vt 0.206063 0.729702
vt 0.262697 0.848791
vt 0.251328 0.898786
vt 0.171242 0.567789
vt 0.224905 0.584103
vt 0.567372 0.898792
vt 0.556017 0.848791
vt 0.613371 0.728898
vt 0.666978 0.742233
vt 0.597946 0.587198
vt 0.651265 0.572851
vt 0.261302 0.445999
vt 0.313738 0.481029
vt 0.518375 0.481088
vt 0.571279 0.449976
vt 0.279565 0.618720
vt 0.266072 0.728396
vt 0.552782 0.728566
vt 0.542965 0.619545
vt 0.375860 0.572531
vt 0.451944 0.567294
vt 0.409357 0.720694
vn -0.131900 -0.386500 0.912800
vn -0.141300 0.835600 0.530900
vn 0.625500 0.528000 0.574500
vn -0.528000 -0.625500 0.574500
vn -0.707100 -0.707100 0.000000
vn 0.707100 0.707100 0.000000
vn 0.285500 0.219300 0.932900
vn -0.776100 0.582300 0.242000
vn -0.984400 -0.147800 -0.095800
vn -0.374000 -0.636000 0.675000
vn -0.274500 -0.163300 0.947600
vn 0.607700 -0.607700 0.511200
vn 0.625400 -0.398000 0.671200
vn 0.422200 -0.616400 0.664600
vn -0.524600 0.524600 0.670500
vn -0.501800 0.260800 0.824700
vn -0.230300 0.510900 0.828200
vn 0.685600 0.507600 0.521700
vn 0.478800 0.604900 0.636200
vn 0.088200 0.994600 -0.055000
vn 0.255500 0.936700 -0.239400
vn 0.304600 -0.303600 0.902800
vn 0.132700 -0.131800 0.982300
vn -0.506500 -0.685700 0.522700
vn -0.603900 -0.478800 0.637100
vn -0.936600 -0.256600 -0.238400
vn -0.994500 -0.089100 -0.054100
vn -0.555600 0.554600 -0.619500
vn -0.648500 0.647500 -0.400200
vn 0.486000 0.602300 0.633200
vn 0.093700 0.993700 -0.061000
vn 0.138500 -0.137500 0.980700
vn -0.601400 -0.486100 0.634100
vn -0.993700 -0.094700 -0.060200
vn -0.646100 0.645200 -0.407700
vn 0.774800 0.444500 0.449400
vn 0.335300 0.883000 -0.328300
vn 0.385400 -0.384400 0.838800
vn -0.443500 -0.774900 0.450400
vn -0.883000 -0.336400 -0.327300
vn -0.493600 0.492500 -0.716800
vn 0.832900 0.392300 0.390300
vn 0.391300 0.832900 -0.391200
vn 0.441600 -0.440600 0.781500
vn -0.391300 -0.832900 0.391200
vn -0.832900 -0.392300 -0.390300
vn -0.441600 0.440600 -0.781500
vn -0.139100 0.971600 0.191400
vn 0.161100 0.672000 0.722800
vn -0.104900 0.105600 0.988800
vn -0.671300 -0.161200 0.723400
vn -0.971600 0.138400 0.192000
vn -0.705500 0.704800 -0.074000
vn -0.552600 0.552600 0.623800
vn -0.038400 0.037600 -0.998500
vn 0.637200 0.345500 -0.688900
vn 0.546300 -0.546300 -0.634800
vn -0.345400 -0.638100 -0.688100
vn 0.022700 -0.996800 -0.075900
vn 0.689300 -0.688400 0.225700
vn 0.996800 -0.021800 -0.076700
vn -0.298500 0.297500 -0.906800
vn 0.526700 0.663600 -0.531200
vn -0.663500 -0.527800 -0.530300
vn -0.205100 -0.958600 0.197400
vn 0.591700 -0.590700 0.548600
vn 0.958600 0.206200 0.196500
vn 0.842800 0.531300 -0.085700
vn -0.089400 0.957100 -0.275400
vn -0.004700 0.985500 0.169500
vn 0.938300 0.336600 -0.078700
vn 0.575500 -0.808400 -0.123200
vn 0.568700 -0.795600 -0.208700
vn -0.750800 -0.631500 -0.193500
vn -0.608000 -0.793800 -0.010700
vn -0.897700 0.330700 -0.291200
vn -0.930500 0.303600 0.204700
vn 0.013800 0.959300 0.282000
vn 0.918200 0.365600 -0.152500
vn 0.528700 -0.759300 -0.379300
vn -0.623200 -0.781300 -0.034400
vn -0.897200 0.276100 0.344600
vn 0.065800 0.916600 0.394300
vn 0.897500 0.378400 -0.226200
vn 0.474600 -0.701900 -0.531100
vn -0.620400 -0.781800 -0.062300
vn -0.845400 0.217400 0.487900
vn 0.076200 0.898100 0.433000
vn 0.881500 0.397600 -0.254600
vn 0.445600 -0.674000 -0.589100
vn -0.632200 -0.771300 -0.073000
vn -0.819900 0.198900 0.536800
vn -0.024600 0.749500 -0.661500
vn -0.618100 0.232000 -0.751100
vn -0.691600 -0.722300 0.000000
vn -0.655400 -0.714900 0.243400
vn -0.897400 0.165400 0.409000
vn -0.989300 0.145800 0.000000
vn -0.042800 -0.999100 0.000000
vn -0.021200 -0.945800 0.324000
vn -0.145800 0.989300 0.000000
vn -0.165400 0.897400 0.409000
vn 0.714900 0.655400 0.243400
vn 0.722300 0.691600 0.000000
vn 0.945800 0.021200 0.324000
vn 0.999100 0.042800 0.000000
vn 0.707100 -0.707100 0.000000
vn 0.660200 -0.660200 0.358200
vn -0.070000 -0.592100 0.802800
vn -0.485600 -0.344600 0.803400
vn 0.344600 0.485600 0.803400
vn 0.592100 0.070000 0.802800
vn 0.311300 -0.311300 0.897900
vn -0.152200 0.152200 0.976500
usemtl desk_lamp
s off
f 1/1/1 4/2/1 3/3/1 2/4/1
f 6/5/2 5/6/2 8/7/2 7/8/2
f 14/9/3 16/10/3 15/11/3
f 11/12/4 12/13/4 13/14/4
f 67/15/5 71/16/5 72/17/5
f 68/18/5 71/16/5 67/15/5
f 68/18/5 70/19/5 71/16/5
f 68/18/5 69/20/5 70/19/5
f 77/18/6 75/19/6 76/20/6
f 77/18/6 74/16/6 75/19/6
f 77/18/6 78/15/6 74/16/6
f 78/15/6 73/17/6 74/16/6
f 126/21/7 5/6/7 6/5/7 127/22/7
f 8/7/8 129/23/8 128/24/8 7/8/8
f 129/23/9 10/25/9 9/26/9 128/24/9
f 1/1/10 130/27/10 131/28/10 4/2/10
f 130/27/11 126/21/11 127/22/11 131/28/11
f 132/29/12 12/13/12 15/11/12
f 16/10/13 132/29/13 15/11/13
f 132/29/14 13/14/14 12/13/14
f 132/29/15 14/9/15 11/12/15
f 13/14/16 132/29/16 11/12/16
f 132/29/17 16/10/17 14/9/17
s 1
f 18/30/18 24/31/19 23/32/20 17/33/21
f 19/34/22 25/35/23 24/31/19 18/30/18
f 20/30/24 26/31/25 25/35/23 19/34/22
f 21/36/26 27/37/27 26/31/25 20/30/24
f 22/38/28 28/39/29 27/37/27 21/36/26
f 22/38/28 17/33/21 23/32/20 28/39/29
f 24/31/19 30/40/30 29/41/31 23/32/20
f 25/35/23 31/42/32 30/40/30 24/31/19
f 26/31/25 32/43/33 31/42/32 25/35/23
f 27/37/27 33/44/34 32/43/33 26/31/25
f 28/39/29 34/45/35 33/44/34 27/37/27
f 28/39/29 23/32/20 29/41/31 34/45/35
f 30/40/30 35/46/36 36/47/37 29/41/31
f 31/42/32 37/48/38 35/46/36 30/40/30
f 32/43/33 38/49/39 37/48/38 31/42/32
f 33/44/34 39/50/40 38/49/39 32/43/33
f 34/45/35 40/51/41 39/50/40 33/44/34
f 34/45/35 29/41/31 36/47/37 40/51/41
f 35/46/36 42/52/42 41/53/43 36/47/37
f 37/48/38 43/54/44 42/52/42 35/46/36
f 38/49/39 44/55/45 43/54/44 37/48/38
f 39/50/40 45/56/46 44/55/45 38/49/39
f 40/51/41 46/57/47 45/56/46 39/50/40
f 40/51/41 36/47/37 41/53/43 46/57/47
f 17/33/21 47/58/48 48/59/49 18/30/18
f 18/30/18 48/59/49 49/60/50 19/34/22
f 19/34/22 49/60/50 50/61/51 20/30/24
f 20/30/24 50/61/51 51/62/52 21/36/26
f 21/36/26 51/62/52 52/63/53 22/38/28
f 17/33/21 22/38/28 52/63/53 47/58/48
f 47/58/48 53/64/54 48/59/49
f 48/59/49 53/64/54 49/65/50
f 49/65/50 53/64/54 50/66/51
f 50/66/51 53/64/54 51/67/52
f 51/67/52 53/64/54 52/68/53
f 47/58/48 52/68/53 53/64/54
f 54/69/55 59/70/56 60/71/57
f 54/69/55 60/71/57 55/72/58
f 55/72/58 60/71/57 56/73/59
f 56/73/59 60/71/57 57/74/60
f 57/74/60 60/71/57 58/75/61
f 58/75/61 60/71/57 59/70/56
f 59/70/56 54/69/55 61/76/62 62/77/63
f 55/72/58 63/78/64 61/76/62 54/69/55
f 56/73/59 64/79/65 63/78/64 55/72/58
f 57/74/60 65/80/66 64/79/65 56/73/59
f 58/75/61 66/81/67 65/80/66 57/74/60
f 59/70/56 62/77/63 66/81/67 58/75/61
f 80/82/68 79/83/69 85/84/70 84/85/71
f 81/86/72 80/82/68 84/85/71 86/87/73
f 82/88/74 81/89/72 86/90/73 87/91/75
f 83/92/76 82/88/74 87/91/75 88/93/77
f 79/83/69 83/92/76 88/93/77 85/84/70
f 84/85/71 85/84/70 90/94/78 89/95/79
f 86/87/73 84/85/71 89/95/79 91/96/80
f 87/91/75 86/90/73 91/97/80 92/98/81
f 88/93/77 87/91/75 92/98/81 93/99/82
f 85/84/70 88/93/77 93/99/82 90/94/78
f 89/95/79 90/94/78 95/100/83 94/101/84
f 91/96/80 89/95/79 94/101/84 96/102/85
f 92/98/81 91/97/80 96/103/85 97/104/86
f 93/99/82 92/98/81 97/104/86 98/105/87
f 90/94/78 93/99/82 98/105/87 95/100/83
f 94/101/84 95/100/83 99/106/88 100/107/89
f 96/102/85 94/101/84 100/107/89 101/108/90
f 97/104/86 96/103/85 101/109/90 102/110/91
f 98/105/87 97/104/86 102/110/91 103/111/92
f 95/100/83 98/105/87 103/111/92 99/106/88
f 83/92/76 79/83/69 104/112/93 105/113/94
f 79/83/69 80/82/68 104/112/93
f 82/88/74 83/92/76 105/113/94
f 111/114/95 114/115/96 117/116/97 108/117/98
f 107/118/99 118/119/100 114/115/96 111/114/95
f 109/120/101 116/121/102 113/122/103 112/123/104
f 112/123/104 113/122/103 119/124/105 106/125/106
f 110/126/107 115/127/108 118/119/100 107/118/99
f 106/125/106 119/124/105 115/128/108 110/129/107
f 108/117/98 117/116/97 116/121/102 109/120/101
f 118/119/100 121/130/109 120/131/110 114/115/96
f 113/122/103 122/132/111 123/133/112 119/124/105
f 115/127/108 124/134/113 121/130/109 118/119/100
f 119/124/105 123/133/112 124/135/113 115/128/108
f 114/115/96 120/131/110 117/116/97
f 113/122/103 116/121/102 122/132/111
f 117/116/97 120/131/110 125/136/114
f 125/136/114 122/132/111 116/121/102
f 125/136/114 116/121/102 117/116/97
f 122/132/111 125/136/114 124/135/113 123/133/112
f 121/130/109 124/134/113 125/136/114 120/131/110
